<svg width="143" height="34" viewBox="0 0 143 34" fill="none" xmlns="http://www.w3.org/2000/svg">
<g filter="url(#filter0_d_62_1)">
<path d="M9.01 25V15.37L4.27 0.699998H8.92L11.53 9.25L13.96 0.699998H18.46L13.78 15.37V25H9.01ZM26.9362 25.33C25.1562 25.33 23.7462 25.01 22.7062 24.37C21.6662 23.73 20.9162 22.82 20.4562 21.64C20.0162 20.44 19.7962 19.01 19.7962 17.35V8.29C19.7962 6.63 20.0162 5.21 20.4562 4.03C20.9162 2.85 21.6662 1.95 22.7062 1.33C23.7462 0.709999 25.1562 0.399998 26.9362 0.399998C28.7362 0.399998 30.1562 0.719998 31.1962 1.36C32.2562 1.98 33.0062 2.88 33.4462 4.06C33.9062 5.22 34.1362 6.63 34.1362 8.29V17.35C34.1362 19.01 33.9062 20.44 33.4462 21.64C33.0062 22.82 32.2562 23.73 31.1962 24.37C30.1562 25.01 28.7362 25.33 26.9362 25.33ZM26.9362 21.76C27.5762 21.76 28.0462 21.62 28.3462 21.34C28.6462 21.04 28.8462 20.65 28.9462 20.17C29.0462 19.67 29.0962 19.14 29.0962 18.58V7.09C29.0962 6.53 29.0462 6.01 28.9462 5.53C28.8462 5.05 28.6462 4.67 28.3462 4.39C28.0462 4.09 27.5762 3.94 26.9362 3.94C26.3362 3.94 25.8862 4.09 25.5862 4.39C25.2862 4.67 25.0862 5.05 24.9862 5.53C24.8862 6.01 24.8362 6.53 24.8362 7.09V18.58C24.8362 19.14 24.8762 19.67 24.9562 20.17C25.0562 20.65 25.2562 21.04 25.5562 21.34C25.8562 21.62 26.3162 21.76 26.9362 21.76ZM44.2813 25.33C42.4413 25.33 41.0113 25.02 39.9913 24.4C38.9713 23.76 38.2513 22.85 37.8313 21.67C37.4313 20.47 37.2313 19.02 37.2313 17.32V0.699998H42.1213V18.01C42.1213 18.61 42.1613 19.2 42.2413 19.78C42.3413 20.36 42.5413 20.83 42.8413 21.19C43.1613 21.55 43.6413 21.73 44.2813 21.73C44.9413 21.73 45.4213 21.55 45.7213 21.19C46.0413 20.83 46.2413 20.36 46.3213 19.78C46.4013 19.2 46.4413 18.61 46.4413 18.01V0.699998H51.3313V17.32C51.3313 19.02 51.1213 20.47 50.7013 21.67C50.3013 22.85 49.5913 23.76 48.5713 24.4C47.5513 25.02 46.1213 25.33 44.2813 25.33ZM54.7851 25V0.699998H61.0851C62.7251 0.699998 64.1251 0.889999 65.2851 1.27C66.4651 1.63 67.3651 2.28 67.9851 3.22C68.6251 4.16 68.9451 5.46 68.9451 7.12C68.9451 8.12 68.8551 9.01 68.6751 9.79C68.5151 10.55 68.2151 11.22 67.7751 11.8C67.3551 12.36 66.7551 12.81 65.9751 13.15L69.3351 25H64.2651L61.4751 13.99H59.7351V25H54.7851ZM59.7351 11.05H61.1751C61.9751 11.05 62.6051 10.92 63.0651 10.66C63.5251 10.4 63.8451 10.01 64.0251 9.49C64.2251 8.95 64.3251 8.29 64.3251 7.51C64.3251 6.39 64.1151 5.54 63.6951 4.96C63.2951 4.36 62.5351 4.06 61.4151 4.06H59.7351V11.05Z" fill="#F2C94C"/>
<path d="M72.2453 25V0.699998H77.6153V21.37H83.1953V25H72.2453ZM93.4752 25.36C91.6552 25.36 90.2152 25.04 89.1552 24.4C88.0952 23.76 87.3352 22.84 86.8752 21.64C86.4152 20.44 86.1852 19.01 86.1852 17.35V8.32C86.1852 6.64 86.4152 5.21 86.8752 4.03C87.3352 2.85 88.0952 1.95 89.1552 1.33C90.2152 0.689999 91.6552 0.369999 93.4752 0.369999C95.3152 0.369999 96.7652 0.689999 97.8252 1.33C98.9052 1.95 99.6752 2.85 100.135 4.03C100.595 5.21 100.825 6.64 100.825 8.32V17.35C100.825 19.01 100.595 20.44 100.135 21.64C99.6752 22.84 98.9052 23.76 97.8252 24.4C96.7652 25.04 95.3152 25.36 93.4752 25.36ZM93.4752 21.55C94.0352 21.55 94.4452 21.41 94.7052 21.13C94.9652 20.85 95.1352 20.49 95.2152 20.05C95.2952 19.61 95.3352 19.16 95.3352 18.7V7C95.3352 6.52 95.2952 6.07 95.2152 5.65C95.1352 5.21 94.9652 4.85 94.7052 4.57C94.4452 4.29 94.0352 4.15 93.4752 4.15C92.9552 4.15 92.5652 4.29 92.3052 4.57C92.0452 4.85 91.8752 5.21 91.7952 5.65C91.7152 6.07 91.6752 6.52 91.6752 7V18.7C91.6752 19.16 91.7052 19.61 91.7652 20.05C91.8452 20.49 92.0052 20.85 92.2452 21.13C92.5052 21.41 92.9152 21.55 93.4752 21.55ZM111.773 25.36C110.093 25.36 108.763 25.01 107.783 24.31C106.823 23.61 106.133 22.63 105.713 21.37C105.313 20.09 105.113 18.62 105.113 16.96V8.8C105.113 7.08 105.333 5.59 105.773 4.33C106.213 3.07 106.963 2.1 108.023 1.42C109.103 0.719999 110.563 0.369999 112.403 0.369999C114.203 0.369999 115.613 0.669999 116.633 1.27C117.673 1.87 118.413 2.7 118.853 3.76C119.293 4.82 119.513 6.06 119.513 7.48V9.04H114.263V7.06C114.263 6.54 114.223 6.06 114.143 5.62C114.083 5.18 113.923 4.83 113.663 4.57C113.423 4.29 113.023 4.15 112.463 4.15C111.883 4.15 111.463 4.31 111.203 4.63C110.943 4.93 110.773 5.31 110.693 5.77C110.633 6.23 110.603 6.71 110.603 7.21V18.46C110.603 19 110.653 19.51 110.753 19.99C110.873 20.45 111.073 20.83 111.353 21.13C111.653 21.41 112.073 21.55 112.613 21.55C113.173 21.55 113.603 21.4 113.903 21.1C114.203 20.8 114.413 20.41 114.533 19.93C114.653 19.45 114.713 18.94 114.713 18.4V15.55H112.523V12.4H119.543V25H116.003L115.703 22.99C115.383 23.67 114.913 24.24 114.293 24.7C113.673 25.14 112.833 25.36 111.773 25.36ZM131.214 25.36C129.394 25.36 127.954 25.04 126.894 24.4C125.834 23.76 125.074 22.84 124.614 21.64C124.154 20.44 123.924 19.01 123.924 17.35V8.32C123.924 6.64 124.154 5.21 124.614 4.03C125.074 2.85 125.834 1.95 126.894 1.33C127.954 0.689999 129.394 0.369999 131.214 0.369999C133.054 0.369999 134.504 0.689999 135.564 1.33C136.644 1.95 137.414 2.85 137.874 4.03C138.334 5.21 138.564 6.64 138.564 8.32V17.35C138.564 19.01 138.334 20.44 137.874 21.64C137.414 22.84 136.644 23.76 135.564 24.4C134.504 25.04 133.054 25.36 131.214 25.36ZM131.214 21.55C131.774 21.55 132.184 21.41 132.444 21.13C132.704 20.85 132.874 20.49 132.954 20.05C133.034 19.61 133.074 19.16 133.074 18.7V7C133.074 6.52 133.034 6.07 132.954 5.65C132.874 5.21 132.704 4.85 132.444 4.57C132.184 4.29 131.774 4.15 131.214 4.15C130.694 4.15 130.304 4.29 130.044 4.57C129.784 4.85 129.614 5.21 129.534 5.65C129.454 6.07 129.414 6.52 129.414 7V18.7C129.414 19.16 129.444 19.61 129.504 20.05C129.584 20.49 129.744 20.85 129.984 21.13C130.244 21.41 130.654 21.55 131.214 21.55Z" fill="white"/>
</g>
<defs>
<filter id="filter0_d_62_1" x="0.27002" y="0.369995" width="142.294" height="32.99" filterUnits="userSpaceOnUse" color-interpolation-filters="sRGB">
<feFlood flood-opacity="0" result="BackgroundImageFix"/>
<feColorMatrix in="SourceAlpha" type="matrix" values="0 0 0 0 0 0 0 0 0 0 0 0 0 0 0 0 0 0 127 0" result="hardAlpha"/>
<feOffset dy="4"/>
<feGaussianBlur stdDeviation="2"/>
<feComposite in2="hardAlpha" operator="out"/>
<feColorMatrix type="matrix" values="0 0 0 0 0 0 0 0 0 0 0 0 0 0 0 0 0 0 0.25 0"/>
<feBlend mode="normal" in2="BackgroundImageFix" result="effect1_dropShadow_62_1"/>
<feBlend mode="normal" in="SourceGraphic" in2="effect1_dropShadow_62_1" result="shape"/>
</filter>
</defs>
</svg>
